<svg width="68" height="68" viewBox="0 0 68 68" fill="none" xmlns="http://www.w3.org/2000/svg">
<path d="M61.625 51H55.25V44.625C55.25 44.0614 55.0261 43.5209 54.6276 43.1224C54.2291 42.7239 53.6886 42.5 53.125 42.5C52.5614 42.5 52.0209 42.7239 51.6224 43.1224C51.2239 43.5209 51 44.0614 51 44.625V51H44.625C44.0614 51 43.5209 51.2239 43.1224 51.6224C42.7239 52.0209 42.5 52.5614 42.5 53.125C42.5 53.6886 42.7239 54.2291 43.1224 54.6276C43.5209 55.0261 44.0614 55.25 44.625 55.25H51V61.625C51 62.1886 51.2239 62.7291 51.6224 63.1276C52.0209 63.5261 52.5614 63.75 53.125 63.75C53.6886 63.75 54.2291 63.5261 54.6276 63.1276C55.0261 62.7291 55.25 62.1886 55.25 61.625V55.25H61.625C62.1886 55.25 62.7291 55.0261 63.1276 54.6276C63.5261 54.2291 63.75 53.6886 63.75 53.125C63.75 52.5614 63.5261 52.0209 63.1276 51.6224C62.7291 51.2239 62.1886 51 61.625 51Z" fill="white"/>
<path d="M36.125 51H10.625C10.0614 51 9.52091 50.7761 9.1224 50.3776C8.72388 49.9791 8.5 49.4386 8.5 48.875V43.3713L17 34.8713L21.8662 39.7587C22.0638 39.9579 22.2988 40.116 22.5578 40.2239C22.8167 40.3318 23.0945 40.3873 23.375 40.3873C23.6555 40.3873 23.9333 40.3318 24.1922 40.2239C24.4512 40.116 24.6862 39.9579 24.8838 39.7587L36.125 28.4963L45.2413 37.6337C45.6414 38.0339 46.1841 38.2587 46.75 38.2587C47.3159 38.2587 47.8586 38.0339 48.2587 37.6337C48.6589 37.2336 48.8837 36.6909 48.8837 36.125C48.8837 35.5591 48.6589 35.0164 48.2587 34.6163L37.6337 23.9912C37.4362 23.7921 37.2012 23.634 36.9422 23.5261C36.6833 23.4182 36.4055 23.3627 36.125 23.3627C35.8445 23.3627 35.5667 23.4182 35.3078 23.5261C35.0488 23.634 34.8138 23.7921 34.6163 23.9912L23.375 35.2537L18.5087 30.3662C18.3112 30.1671 18.0762 30.009 17.8172 29.9011C17.5583 29.7932 17.2805 29.7377 17 29.7377C16.7195 29.7377 16.4417 29.7932 16.1828 29.9011C15.9238 30.009 15.6888 30.1671 15.4913 30.3662L8.5 37.3787V10.625C8.5 10.0614 8.72388 9.52091 9.1224 9.1224C9.52091 8.72388 10.0614 8.5 10.625 8.5H48.875C49.4386 8.5 49.9791 8.72388 50.3776 9.1224C50.7761 9.52091 51 10.0614 51 10.625V36.125C51 36.6886 51.2239 37.2291 51.6224 37.6276C52.0209 38.0261 52.5614 38.25 53.125 38.25C53.6886 38.25 54.2291 38.0261 54.6276 37.6276C55.0261 37.2291 55.25 36.6886 55.25 36.125V10.625C55.25 8.93425 54.5784 7.31274 53.3828 6.11719C52.1873 4.92165 50.5658 4.25 48.875 4.25H10.625C8.93425 4.25 7.31274 4.92165 6.11719 6.11719C4.92165 7.31274 4.25 8.93425 4.25 10.625V48.875C4.25 50.5658 4.92165 52.1873 6.11719 53.3828C7.31274 54.5784 8.93425 55.25 10.625 55.25H36.125C36.6886 55.25 37.2291 55.0261 37.6276 54.6276C38.0261 54.2291 38.25 53.6886 38.25 53.125C38.25 52.5614 38.0261 52.0209 37.6276 51.6224C37.2291 51.2239 36.6886 51 36.125 51Z" fill="white"/>
<path d="M17 19.125C17 20.3859 17.3739 21.6184 18.0744 22.6668C18.7749 23.7151 19.7705 24.5322 20.9354 25.0147C22.1003 25.4972 23.3821 25.6235 24.6187 25.3775C25.8553 25.1315 26.9912 24.5244 27.8828 23.6328C28.7744 22.7412 29.3815 21.6053 29.6275 20.3687C29.8735 19.1321 29.7472 17.8503 29.2647 16.6854C28.7822 15.5205 27.9651 14.5249 26.9168 13.8244C25.8684 13.1239 24.6359 12.75 23.375 12.75C21.6842 12.75 20.0627 13.4217 18.8672 14.6172C17.6716 15.8127 17 17.4342 17 19.125ZM25.5 19.125C25.5 19.5453 25.3754 19.9561 25.1419 20.3056C24.9084 20.655 24.5765 20.9274 24.1882 21.0882C23.7999 21.2491 23.3726 21.2912 22.9604 21.2092C22.5482 21.1272 22.1696 20.9248 21.8724 20.6276C21.5752 20.3304 21.3728 19.9518 21.2908 19.5396C21.2088 19.1274 21.2509 18.7001 21.4118 18.3118C21.5726 17.9235 21.845 17.5916 22.1944 17.3581C22.5439 17.1246 22.9547 17 23.375 17C23.9386 17 24.4791 17.2239 24.8776 17.6224C25.2761 18.0209 25.5 18.5614 25.5 19.125Z" fill="White"/>
</svg>
