<svg width="140" height="40" viewBox="0 0 140 40" fill="none" xmlns="http://www.w3.org/2000/svg">
<rect width="140" height="40" rx="20" fill="#C83232"/>
<path d="M27.5764 19.744H30.5844V21.088H27.5764V24.112L26.2324 24.128V21.088H23.1924V19.744H26.2324V16.72H27.5764V19.744ZM45.1136 26H43.4816L42.2336 22.848H37.6896L36.4416 26H34.8096L39.6256 14.176H40.3296L45.1136 26ZM41.7216 21.44L39.9616 16.896L38.2016 21.44H41.7216ZM53.2269 18.72V13.888H54.6509V26H53.2269V24.8C52.4803 25.7387 51.4723 26.208 50.2029 26.208C48.9443 26.208 47.9096 25.776 47.0989 24.912C46.2883 24.0373 45.8829 22.9707 45.8829 21.712C45.8829 20.4747 46.2936 19.4187 47.1149 18.544C47.9256 17.6693 48.9443 17.232 50.1709 17.232C51.4296 17.232 52.4483 17.728 53.2269 18.72ZM52.5069 23.984C53.0616 23.3653 53.3389 22.608 53.3389 21.712C53.3389 20.816 53.0616 20.0693 52.5069 19.472C51.9523 18.8533 51.2269 18.544 50.3309 18.544C49.4349 18.544 48.7096 18.8533 48.1549 19.472C47.6003 20.0693 47.3229 20.816 47.3229 21.712C47.3229 22.608 47.6003 23.3653 48.1549 23.984C48.7096 24.592 49.4349 24.896 50.3309 24.896C51.2269 24.896 51.9523 24.592 52.5069 23.984ZM63.8832 18.72V13.888H65.3072V26H63.8832V24.8C63.1365 25.7387 62.1285 26.208 60.8592 26.208C59.6005 26.208 58.5659 25.776 57.7552 24.912C56.9445 24.0373 56.5392 22.9707 56.5392 21.712C56.5392 20.4747 56.9499 19.4187 57.7712 18.544C58.5819 17.6693 59.6005 17.232 60.8272 17.232C62.0859 17.232 63.1045 17.728 63.8832 18.72ZM63.1632 23.984C63.7179 23.3653 63.9952 22.608 63.9952 21.712C63.9952 20.816 63.7179 20.0693 63.1632 19.472C62.6085 18.8533 61.8832 18.544 60.9872 18.544C60.0912 18.544 59.3659 18.8533 58.8112 19.472C58.2565 20.0693 57.9792 20.816 57.9792 21.712C57.9792 22.608 58.2565 23.3653 58.8112 23.984C59.3659 24.592 60.0912 24.896 60.9872 24.896C61.8832 24.896 62.6085 24.592 63.1632 23.984ZM77.3086 26.176C75.6019 26.176 74.1619 25.6107 72.9886 24.48C71.8152 23.3387 71.2286 21.888 71.2286 20.128C71.2286 18.336 71.8259 16.864 73.0206 15.712C74.2152 14.5493 75.6606 13.968 77.3566 13.968C78.4232 13.968 79.4152 14.208 80.3326 14.688C81.2606 15.1787 81.9699 15.808 82.4606 16.576L81.3406 17.488C80.8606 16.8373 80.2739 16.3307 79.5806 15.968C78.8979 15.5947 78.1619 15.408 77.3726 15.408C76.0819 15.408 74.9886 15.856 74.0926 16.752C73.1966 17.648 72.7486 18.7787 72.7486 20.144C72.7486 21.488 73.1859 22.592 74.0606 23.456C74.9352 24.32 76.0339 24.752 77.3566 24.752C79.0099 24.752 80.3592 24.0693 81.4046 22.704L82.4926 23.616C81.9272 24.3947 81.1859 25.0187 80.2686 25.488C79.3619 25.9467 78.3752 26.176 77.3086 26.176ZM83.6017 21.712C83.6017 20.4533 84.023 19.3973 84.8657 18.544C85.7084 17.6693 86.7804 17.232 88.0817 17.232C89.3724 17.232 90.439 17.6693 91.2817 18.544C92.135 19.4187 92.5617 20.4747 92.5617 21.712C92.5617 22.992 92.1404 24.0587 91.2977 24.912C90.455 25.776 89.383 26.208 88.0817 26.208C86.7804 26.208 85.7084 25.776 84.8657 24.912C84.023 24.0587 83.6017 22.992 83.6017 21.712ZM91.1217 21.712C91.1217 20.848 90.8284 20.1067 90.2417 19.488C89.6444 18.8587 88.9244 18.544 88.0817 18.544C87.239 18.544 86.519 18.8587 85.9217 19.488C85.335 20.1067 85.0417 20.848 85.0417 21.712C85.0417 22.5973 85.335 23.3493 85.9217 23.968C86.5084 24.5867 87.2284 24.896 88.0817 24.896C88.935 24.896 89.655 24.5867 90.2417 23.968C90.8284 23.3493 91.1217 22.5973 91.1217 21.712ZM97.3628 23.968L100.035 17.44H101.603L97.8268 25.984H96.8668L93.0908 17.44H94.6748L97.3628 23.968ZM110.565 21.568C110.565 21.6853 110.549 21.936 110.517 22.32H103.653C103.781 23.0987 104.101 23.7173 104.613 24.176C105.125 24.6347 105.829 24.864 106.725 24.864C107.226 24.864 107.749 24.7733 108.293 24.592C108.848 24.4107 109.333 24.176 109.749 23.888L110.357 24.992C109.92 25.3333 109.37 25.6213 108.709 25.856C108.048 26.08 107.376 26.192 106.693 26.192C105.669 26.192 104.805 25.968 104.101 25.52C103.397 25.072 102.896 24.5227 102.597 23.872C102.298 23.2107 102.149 22.4853 102.149 21.696C102.149 20.4053 102.549 19.3387 103.349 18.496C104.149 17.6533 105.184 17.232 106.453 17.232C107.658 17.232 108.645 17.6213 109.413 18.4C110.181 19.1787 110.565 20.2347 110.565 21.568ZM108.261 19.216C107.781 18.7573 107.178 18.528 106.453 18.528C105.728 18.528 105.109 18.7627 104.597 19.232C104.085 19.6907 103.77 20.2933 103.653 21.04H109.061C109.018 20.2827 108.752 19.6747 108.261 19.216ZM113.851 26H112.427V17.44H113.771V18.72C114.262 17.7173 115.088 17.216 116.251 17.216C116.55 17.216 116.88 17.2587 117.243 17.344L117.115 18.736C116.806 18.64 116.512 18.592 116.235 18.592C115.52 18.592 114.944 18.8373 114.507 19.328C114.07 19.808 113.851 20.496 113.851 21.392V26Z" fill="white"/>
</svg>
