<svg width="124" height="40" viewBox="0 0 124 40" fill="none" xmlns="http://www.w3.org/2000/svg">
<rect width="124" height="40" rx="20" fill="#C83232"/>
<path d="M57.9026 26H56.2706L55.0226 22.848H50.4786L49.2306 26H47.5986L52.4146 14.176H53.1186L57.9026 26ZM54.5106 21.44L52.7506 16.896L50.9906 21.44H54.5106ZM63.8784 24.384L64.4384 25.488C63.8304 25.968 63.0837 26.208 62.1984 26.208C61.313 26.208 60.641 25.936 60.1824 25.392C59.7237 24.8373 59.4944 24.048 59.4944 23.024V18.672H57.9744V17.44H59.5104V14.416H60.9184V17.44H63.9744V18.672H60.9184V23.168C60.9184 24.32 61.3877 24.896 62.3264 24.896C62.8064 24.896 63.3237 24.7253 63.8784 24.384ZM70.6284 24.384L71.1884 25.488C70.5804 25.968 69.8337 26.208 68.9484 26.208C68.063 26.208 67.391 25.936 66.9324 25.392C66.4737 24.8373 66.2444 24.048 66.2444 23.024V18.672H64.7244V17.44H66.2604V14.416H67.6684V17.44H70.7244V18.672H67.6684V23.168C67.6684 24.32 68.1377 24.896 69.0764 24.896C69.5564 24.896 70.0737 24.7253 70.6284 24.384ZM79.1254 18.704V17.44H80.5014V26H79.1254V24.768C78.3467 25.728 77.328 26.208 76.0694 26.208C74.832 26.208 73.808 25.776 72.9974 24.912C72.1867 24.0373 71.7814 22.9547 71.7814 21.664C71.7814 20.3733 72.1867 19.3173 72.9974 18.496C73.808 17.6533 74.832 17.232 76.0694 17.232C77.3174 17.232 78.336 17.7227 79.1254 18.704ZM79.2374 21.712C79.2374 20.8373 78.9547 20.0907 78.3894 19.472C77.8347 18.8533 77.1094 18.544 76.2134 18.544C75.3174 18.544 74.592 18.8533 74.0374 19.472C73.4934 20.08 73.2214 20.832 73.2214 21.728C73.2214 22.6133 73.4934 23.3653 74.0374 23.984C74.6027 24.592 75.328 24.896 76.2134 24.896C77.0987 24.896 77.824 24.592 78.3894 23.984C78.9547 23.3547 79.2374 22.5973 79.2374 21.712ZM86.9028 26.192C85.5908 26.192 84.5081 25.776 83.6548 24.944C82.8121 24.1013 82.3908 23.0293 82.3908 21.728C82.3908 20.4267 82.8174 19.3493 83.6708 18.496C84.5241 17.6533 85.6281 17.232 86.9828 17.232C87.8254 17.232 88.5988 17.4347 89.3028 17.84C90.0068 18.2453 90.5241 18.784 90.8548 19.456L89.6708 20.144C89.3721 19.6533 88.9828 19.264 88.5028 18.976C88.0334 18.688 87.5268 18.544 86.9828 18.544C86.0761 18.544 85.3241 18.848 84.7268 19.456C84.1294 20.0747 83.8307 20.832 83.8307 21.728C83.8307 22.624 84.1188 23.376 84.6948 23.984C85.2921 24.5813 86.0281 24.88 86.9028 24.88C87.4574 24.88 87.9854 24.7307 88.4868 24.432C89.0094 24.1227 89.3881 23.7493 89.6228 23.312L90.8068 24C90.4548 24.6507 89.9214 25.1787 89.2068 25.584C88.4921 25.9893 87.7241 26.192 86.9028 26.192ZM93.9213 26H92.4973V13.888H93.8733V18.496C94.1399 18.1013 94.5133 17.792 94.9933 17.568C95.4839 17.3333 96.0173 17.216 96.5933 17.216C97.5426 17.216 98.3426 17.5253 98.9933 18.144C99.6439 18.7627 99.9693 19.6533 99.9693 20.816V26H98.5453V21.216C98.5453 20.3627 98.3426 19.7067 97.9373 19.248C97.5426 18.7787 97.0039 18.544 96.3213 18.544C95.6066 18.544 95.0253 18.7947 94.5773 19.296C94.1399 19.7973 93.9213 20.4373 93.9213 21.216V26Z" fill="white"/>
<path d="M22.9468 28.1C22.4261 28.1 22 27.674 22 27.1532V23.8395C22 23.3188 22.4261 22.8927 22.9468 22.8927C23.4675 22.8927 23.8936 23.3188 23.8936 23.8395V26.2064H37.1485V23.8395C37.1485 23.3188 37.5745 22.8927 38.0953 22.8927C38.616 22.8927 39.0421 23.3188 39.0421 23.8395V27.1532C39.0421 27.674 38.616 28.1 38.0953 28.1H22.9468ZM29.8535 12.284L26.1232 16.0143C25.9433 16.1942 25.8439 16.4309 25.8439 16.6818C25.8439 16.9327 25.9433 17.1742 26.1232 17.3493C26.3031 17.5245 26.5398 17.6286 26.7907 17.6286C27.0416 17.6286 27.283 17.5292 27.4582 17.3493L29.5695 15.238V23.3661C29.5695 23.8868 29.9956 24.3129 30.5163 24.3129C31.037 24.3129 31.4631 23.8868 31.4631 23.3661V15.238L33.5744 17.3493C33.7543 17.5292 33.991 17.6286 34.2419 17.6286C34.4928 17.6286 34.7342 17.5292 34.9094 17.3493C35.2786 16.9801 35.2786 16.3789 34.9094 16.0096L31.179 12.2793C30.9991 12.0994 30.7625 12 30.5116 12C30.2607 12 30.0287 12.1041 29.8535 12.284Z" fill="white"/>
</svg>
