<svg width="55" height="54" viewBox="0 0 55 54" fill="none" xmlns="http://www.w3.org/2000/svg">
<path d="M38.8523 7.00261H47.7608C48.3515 7.00261 48.918 7.23725 49.3357 7.65492C49.7533 8.07259 49.988 8.63907 49.988 9.22974V44.8639C49.988 45.4545 49.7533 46.021 49.3357 46.4387C48.918 46.8564 48.3515 47.091 47.7608 47.091H7.67245C7.08177 47.091 6.51529 46.8564 6.09762 46.4387C5.67996 46.021 5.44531 45.4545 5.44531 44.8639V9.22974C5.44531 8.63907 5.67996 8.07259 6.09762 7.65492C6.51529 7.23725 7.08177 7.00261 7.67245 7.00261H16.581V2.54834H21.0352V7.00261H34.398V2.54834H38.8523V7.00261ZM9.89958 20.3654V42.6367H45.5337V20.3654H9.89958ZM14.3538 24.8197H18.8081V29.2739H14.3538V24.8197ZM25.4895 24.8197H29.9438V29.2739H25.4895V24.8197ZM36.6252 24.8197H41.0794V29.2739H36.6252V24.8197Z" fill="white"/>
<path d="M18.8081 33.5738H14.3538V38.0281H18.8081V33.5738Z" fill="white"/>
<path d="M29.9438 33.5738H25.4895V38.0281H29.9438V33.5738Z" fill="white"/>
<path d="M41.0794 33.5738H36.6252V38.0281H41.0794V33.5738Z" fill="white"/>
</svg>
