<svg width="25" height="26" viewBox="0 0 25 26" fill="none" xmlns="http://www.w3.org/2000/svg">
<path fill-rule="evenodd" clip-rule="evenodd" d="M16.695 14.5001L14.3583 20.3722C14.1566 20.8789 13.5863 21.1307 13.0759 20.9384L12.4365 20.6974C11.2675 20.2568 10.4937 19.1382 10.4937 17.889V14.5002H7.49365C6.72349 14.5002 5.99629 14.1454 5.52232 13.5384C5.04836 12.9313 4.8805 12.1398 5.06729 11.3926L6.19276 6.89073C6.47111 5.77735 7.47148 4.99628 8.61912 4.99628H19.4974C20.3262 4.99628 20.998 5.66813 20.998 6.49691V12.9996C20.998 13.8284 20.3262 14.5002 19.4974 14.5002L16.695 14.5001Z" stroke="#C83232" stroke-width="1.5" stroke-linecap="round" stroke-linejoin="round"/>
<path d="M16.6951 14.501V4.99702" stroke="#C83232" stroke-width="1.5" stroke-linecap="round" stroke-linejoin="round"/>
</svg>
