<svg width="33" height="32" viewBox="0 0 33 32" fill="none" xmlns="http://www.w3.org/2000/svg">
<g id="Social, Media/Instagram">
<g id="Group">
<path id="Path (Stroke)" fill-rule="evenodd" clip-rule="evenodd" d="M10.6618 4.66536C7.71811 4.66536 5.33382 7.05079 5.33382 9.99336V22.004C5.33382 24.9477 7.71925 27.332 10.6618 27.332H22.6725C25.6163 27.332 28.0005 24.9465 28.0005 22.0054V9.99336C28.0005 7.04955 25.615 4.66536 22.6738 4.66536H10.6618ZM10.6618 3.33203H22.6738C26.3513 3.33203 29.3338 6.31317 29.3338 9.99336V22.0054C29.3338 25.6829 26.3527 28.6654 22.6725 28.6654H10.6618C6.98306 28.6654 4.00049 25.6843 4.00049 22.004V9.99336C4.00049 6.3146 6.98153 3.33203 10.6618 3.33203Z" fill="#2A293D"/>
<path id="Path (Stroke)_2" fill-rule="evenodd" clip-rule="evenodd" d="M23.2631 8.28516C23.2625 8.28516 23.2619 8.28516 23.2613 8.28517C23.2609 8.28517 23.2604 8.28517 23.2599 8.28517C22.6479 8.28924 22.1489 8.7861 22.1489 9.40249C22.1489 10.0212 22.6526 10.5185 23.2663 10.5185C23.8818 10.5185 24.3813 10.0197 24.3823 9.40434C24.3823 9.40529 24.3815 9.40605 24.3805 9.40605L23.756 9.40271C23.7561 9.40263 23.7561 9.40256 23.7562 9.40249H24.3804C24.3814 9.40249 24.3823 9.40332 24.3823 9.40434C24.3847 8.78207 23.8794 8.28594 23.2664 8.28516C23.2659 8.28516 23.2654 8.28516 23.2649 8.28516C23.2643 8.28516 23.2637 8.28516 23.2631 8.28516ZM23.7562 9.40249H23.7156L23.756 9.40271" fill="#2A293D"/>
<path id="Path (Stroke)_3" fill-rule="evenodd" clip-rule="evenodd" d="M19.5891 13.0791C17.9749 11.4649 15.3578 11.4649 13.7437 13.0791C12.1295 14.6933 12.1295 17.3104 13.7437 18.9245C15.3578 20.5387 17.9749 20.5387 19.5891 18.9245C21.2033 17.3104 21.2033 14.6933 19.5891 13.0791ZM20.5319 12.1363C18.397 10.0014 14.9357 10.0014 12.8009 12.1363C10.666 14.2712 10.666 17.7325 12.8009 19.8673C14.9357 22.0022 18.397 22.0022 20.5319 19.8673C22.6668 17.7325 22.6668 14.2712 20.5319 12.1363Z" fill="#2A293D"/>
</g>
</g>
</svg>
