<svg width="24" height="24" viewBox="0 0 24 24" fill="none" xmlns="http://www.w3.org/2000/svg">
<path fill-rule="evenodd" clip-rule="evenodd" d="M8.30502 10.4999L10.6417 4.62784C10.8434 4.12111 11.4137 3.86926 11.9241 4.0616L12.5635 4.30261C13.7325 4.74318 14.5063 5.86178 14.5063 7.11101V10.4998H17.5063C18.2765 10.4998 19.0037 10.8546 19.4777 11.4616C19.9516 12.0687 20.1195 12.8602 19.9327 13.6074L18.8072 18.1093C18.5289 19.2226 17.5285 20.0037 16.3809 20.0037H5.50258C4.67381 20.0037 4.00195 19.3319 4.00195 18.5031V12.0004C4.00195 11.1716 4.67381 10.4998 5.50258 10.4998L8.30502 10.4999Z" stroke="#C83232" stroke-width="1.5" stroke-linecap="round" stroke-linejoin="round"/>
<path d="M8.3049 10.499V20.003" stroke="#C83232" stroke-width="1.5" stroke-linecap="round" stroke-linejoin="round"/>
</svg>
