<svg width="33" height="32" viewBox="0 0 33 32" fill="none" xmlns="http://www.w3.org/2000/svg">
<g id="Social, Media/Twitter, Square">
<g id="Group">
<g id="Group_2">
<path id="Shape" d="M26.3897 12.832C26.3897 12.5559 26.1659 12.332 25.8897 12.332C25.6136 12.332 25.3897 12.5559 25.3897 12.832H26.3897ZM5.53996 21.7608C5.37705 21.5379 5.06424 21.4892 4.84127 21.6521C4.61829 21.815 4.5696 22.1278 4.7325 22.3508L5.53996 21.7608ZM5.05825 21.5612C4.78549 21.6042 4.59928 21.8603 4.64235 22.133C4.68542 22.4058 4.94145 22.592 5.21421 22.5489L5.05825 21.5612ZM8.59515 20.9021L8.75406 21.3761C8.91776 21.3213 9.04157 21.1858 9.08155 21.0179C9.12154 20.8499 9.07204 20.6732 8.95062 20.5505L8.59515 20.9021ZM7.44217 7.06641L7.88259 6.82968C7.80086 6.67763 7.64648 6.57849 7.47421 6.56743C7.30194 6.55637 7.13615 6.63496 7.03565 6.77531L7.44217 7.06641ZM14.36 12.8313L14.2418 13.3171C14.3881 13.3527 14.5426 13.3205 14.6625 13.2294C14.7823 13.1384 14.8548 12.9981 14.8597 12.8477L14.36 12.8313ZM24.7368 9.37235L24.3194 9.64775C24.412 9.78797 24.5687 9.87235 24.7368 9.87235V9.37235ZM28.1957 9.37235L28.6117 9.6497C28.714 9.49627 28.7235 9.299 28.6365 9.13642C28.5495 8.97384 28.3801 8.87235 28.1957 8.87235V9.37235ZM25.4737 12.5539C25.3205 12.7837 25.3826 13.0941 25.6124 13.2473C25.8421 13.4005 26.1526 13.3384 26.3057 13.1086L25.4737 12.5539ZM25.3897 12.832C25.3897 16.7754 24.2635 20.107 22.2 22.4456C20.1434 24.7764 17.1153 26.1677 13.207 26.1677V27.1677C17.3696 27.1677 20.6828 25.6765 22.9498 23.1072C25.21 20.5457 26.3897 16.9595 26.3897 12.832H25.3897ZM13.207 26.1677C10.9975 26.1677 9.48477 25.5939 8.33487 24.7801C7.16969 23.9556 6.34753 22.8662 5.53996 21.7608L4.7325 22.3508C5.53525 23.4495 6.44255 24.6661 7.75721 25.5964C9.08717 26.5376 10.8047 27.1677 13.207 27.1677V26.1677ZM5.21421 22.5489C5.23189 22.5461 5.2456 22.543 5.25028 22.5419C5.25672 22.5404 5.26195 22.539 5.26515 22.5382C5.27154 22.5365 5.27689 22.535 5.27993 22.5341C5.28633 22.5322 5.29259 22.5303 5.29743 22.5288C5.30761 22.5256 5.3203 22.5216 5.33437 22.5171C5.36293 22.5079 5.40273 22.4949 5.45152 22.4788C5.54939 22.4466 5.68669 22.4012 5.84981 22.3469C6.1762 22.2384 6.60775 22.0944 7.03789 21.9506C7.46809 21.8068 7.89713 21.6632 8.2186 21.5555C8.37934 21.5017 8.5132 21.4569 8.60687 21.4255C8.65371 21.4098 8.6905 21.3974 8.71559 21.389C8.72813 21.3848 8.73775 21.3816 8.74423 21.3794C8.74747 21.3784 8.74992 21.3775 8.75157 21.377C8.7524 21.3767 8.75302 21.3765 8.75343 21.3764C8.75364 21.3763 8.7538 21.3762 8.7539 21.3762C8.75395 21.3762 8.75399 21.3762 8.75402 21.3762C8.75405 21.3761 8.75406 21.3761 8.59515 20.9021C8.43623 20.428 8.43622 20.428 8.4362 20.428C8.43617 20.428 8.43613 20.428 8.43608 20.428C8.43598 20.4281 8.43582 20.4281 8.43561 20.4282C8.4352 20.4283 8.43458 20.4285 8.43376 20.4288C8.43212 20.4294 8.42966 20.4302 8.42643 20.4313C8.41996 20.4335 8.41035 20.4367 8.39782 20.4409C8.37275 20.4493 8.33598 20.4616 8.28916 20.4773C8.19553 20.5087 8.06173 20.5535 7.90105 20.6073C7.57968 20.7149 7.15083 20.8585 6.72087 21.0022C6.29085 21.1459 5.85994 21.2898 5.53437 21.398C5.3715 21.4521 5.23544 21.4972 5.13915 21.5289C5.09087 21.5447 5.0534 21.557 5.02781 21.5652C5.01481 21.5694 5.00621 21.5721 5.0013 21.5737C4.99859 21.5745 4.99886 21.5744 5.00086 21.5738C5.0017 21.5736 5.00525 21.5725 5.01026 21.5712C5.01276 21.5706 5.0174 21.5694 5.02334 21.568C5.02753 21.567 5.04085 21.5639 5.05825 21.5612L5.21421 22.5489ZM8.95062 20.5505C5.27448 16.834 4.9976 11.3392 7.8487 7.3575L7.03565 6.77531C3.90667 11.145 4.21396 17.1838 8.23967 21.2537L8.95062 20.5505ZM7.00176 7.30313C8.46871 10.0323 11.2185 12.5816 14.2418 13.3171L14.4782 12.3454C11.7981 11.6935 9.25195 9.3773 7.88259 6.82968L7.00176 7.30313ZM14.8597 12.8477C14.9109 11.2921 15.4622 9.97479 16.3675 9.04975C17.2702 8.12741 18.5522 7.56641 20.1249 7.56641V6.56641C18.302 6.56641 16.7564 7.22275 15.6529 8.3503C14.552 9.47514 13.9186 11.0403 13.8603 12.8148L14.8597 12.8477ZM20.1249 7.56641C21.2161 7.56641 22.0498 7.77415 22.7099 8.1265C23.3689 8.4783 23.8858 8.99072 24.3194 9.64775L25.1541 9.09695C24.648 8.33006 24.0148 7.68951 23.1808 7.24431C22.3478 6.79967 21.3454 6.56641 20.1249 6.56641V7.56641ZM24.7368 9.87235H28.1957V8.87235H24.7368V9.87235ZM27.7796 9.095L25.4737 12.5539L26.3057 13.1086L28.6117 9.6497L27.7796 9.095Z" fill="#2A293D"/>
</g>
</g>
</g>
</svg>
