<svg width="38" height="32" viewBox="0 0 38 32" fill="none" xmlns="http://www.w3.org/2000/svg">
<path fill-rule="evenodd" clip-rule="evenodd" d="M20.0181 3.94839L19 4.98223L17.9816 3.94823C16.1251 2.06212 13.5892 1 10.9426 1C8.29609 1 5.76023 2.06212 3.90365 3.94823C0.0321169 7.92674 0.0321169 14.2645 3.90365 18.243L14.6889 29.1943C15.826 30.3494 17.3791 30.9999 19 30.9999C20.6209 30.9999 22.1741 30.3494 23.3111 29.1943L34.0964 18.2432C37.9679 14.2647 37.9679 7.92694 34.0964 3.94841C32.2398 2.06224 29.7039 1.00007 27.0573 1.00007C24.4106 1.00006 21.8747 2.06222 20.0181 3.94839Z" stroke="#BD474B" stroke-width="2" stroke-linecap="round" stroke-linejoin="round"/>
</svg>
